<svg xmlns="http://www.w3.org/2000/svg" viewBox="0 0 24 24">
    <!-- Đế giày -->
    <path d="M3,17 L21,17 C21,17 21,19 19,19 L5,19 C3,19 3,17 3,17 Z" fill="#795548" />
  
    <!-- Thân giày -->
    <path d="M5,7 L19,7 C19,7 19,12 17,14 C15,16 7,16 5,14 C3,12 3,7 5,7 Z" fill="#FFEB3B" />
  
    <!-- Dây giày -->
    <line x1="7" y1="9" x2="7" y2="13" stroke="#000000" stroke-width="0.5" />
    <line x1="9" y1="9" x2="9" y2="13" stroke="#000000" stroke-width="0.5" />
    <line x1="11" y1="9" x2="11" y2="13" stroke="#000000" stroke-width="0.5" />
    <line x1="13" y1="9" x2="13" y2="13" stroke="#000000" stroke-width="0.5" />
    <line x1="15" y1="9" x2="15" y2="13" stroke="#000000" stroke-width="0.5" />
    <line x1="17" y1="9" x2="17" y2="13" stroke="#000000" stroke-width="0.5" />
</svg>

